<svg height="512pt" viewBox="0 -4 512 512" width="512pt" xmlns="http://www.w3.org/2000/svg"><path d="m130.398438 36.53125 34.234374-34.03125c3.347657-3.234375 8.671876-3.1875 11.964844.105469 3.289063 3.289062 3.335938 8.613281.101563 11.960937l-25.597657 25.601563zm0 0" fill="#7f8c8d"/><path d="m179.199219 17.066406h-51.199219c-4.710938 0-8.535156-3.820312-8.535156-8.53125 0-4.714844 3.824218-8.535156 8.535156-8.535156h51.199219c4.714843 0 8.535156 3.820312 8.535156 8.535156 0 4.710938-3.820313 8.53125-8.535156 8.53125zm0 0" fill="#95a5a5"/><path d="m108.117188 93.867188 17.941406-53.894532c1.160156-3.488281 4.421875-5.839844 8.09375-5.839844h13.292968c3.675782 0 6.9375 2.351563 8.097657 5.839844l17.941406 53.894532-28.417969 25.597656h-8.53125zm0 0" fill="#f18d46"/><path d="m119.464844 93.867188 11.710937-53.894532c.757813-3.488281 2.886719-5.839844 5.285157-5.839844h8.675781c2.398437 0 4.53125 2.351563 5.289062 5.839844l11.707031 53.894532-18.546874 25.597656h-5.570313zm0 0" fill="#f29c1f"/><path d="m102.398438 128v51.199219h76.800781v-51.199219h8.535156c4.710937 0 8.53125-3.820312 8.53125-8.535156v-17.066406c0-4.710938-3.820313-8.53125-8.53125-8.53125h-93.867187c-4.714844 0-8.535157 3.820312-8.535157 8.53125v17.066406c0 4.714844 3.820313 8.535156 8.535157 8.535156zm0 0" fill="#bdc3c7"/><path d="m108.308594 128v51.199219h64.984375v-51.199219h7.21875c4.335937-.390625 7.554687-4.191406 7.222656-8.535156v-17.066406c.332031-4.339844-2.886719-8.140626-7.222656-8.53125h-79.425781c-4.332032.390624-7.550782 4.191406-7.21875 8.53125v17.066406c-.332032 4.34375 2.886718 8.144531 7.21875 8.535156zm0 0" fill="#e6e7e8"/><path d="m128 136.535156c-4.710938 0-8.535156-3.824218-8.535156-8.535156v-8.535156c0-4.710938 3.824218-8.53125 8.535156-8.53125s8.535156 3.820312 8.535156 8.53125v8.535156c0 4.710938-3.824218 8.535156-8.535156 8.535156zm0 0" fill="#35495e"/><path d="m153.601562 136.535156c-4.714843 0-8.535156-3.824218-8.535156-8.535156v-8.535156c0-4.710938 3.820313-8.53125 8.535156-8.53125 4.710938 0 8.53125 3.820312 8.53125 8.53125v8.535156c0 4.710938-3.820312 8.535156-8.53125 8.535156zm0 0" fill="#35495e"/><path d="m366.933594 136.535156h34.132812v51.199219h-34.132812zm0 0" fill="#bdc3c7"/><path d="m409.601562 145.066406h-51.203124c-4.710938 0-8.53125-3.820312-8.53125-8.53125 0-4.714844 3.820312-8.535156 8.53125-8.535156h51.203124c4.710938 0 8.53125 3.820312 8.53125 8.535156 0 4.710938-3.820312 8.53125-8.53125 8.53125zm0 0" fill="#e6e7e8"/><path d="m76.800781 187.734375v34.132813h59.734375l68.265625-8.535157v-25.597656h8.53125c4.714844 0 8.535157-3.820313 8.535157-8.535156v-17.066407c0-4.710937-3.820313-8.53125-8.535157-8.53125h-145.066406c-4.710937 0-8.53125 3.820313-8.53125 8.53125v17.066407c0 4.714843 3.820313 8.535156 8.53125 8.535156zm0 0" fill="#d1d4d1"/><path d="m83.542969 187.734375v34.132813h53.445312l61.078125-8.535157v-25.597656h7.636719c4.457031-.265625 7.863281-4.078125 7.628906-8.535156v-17.066407c.234375-4.460937-3.175781-8.269531-7.632812-8.53125h-129.796875c-4.460938.261719-7.871094 4.070313-7.636719 8.53125v17.066407c-.234375 4.460937 3.175781 8.273437 7.636719 8.535156zm0 0" fill="#ecf0f1"/><path d="m332.800781 170.667969h136.53125c4.714844 0 8.535157 3.820312 8.535157 8.53125v51.199219h-153.601563v-51.199219c0-4.710938 3.820313-8.53125 8.535156-8.53125zm0 0" fill="#2980ba"/><path d="m341.332031 170.667969h119.46875c4.710938 0 8.53125 3.820312 8.53125 8.53125v51.199219h-136.53125v-51.199219c0-4.710938 3.820313-8.53125 8.53125-8.53125zm0 0" fill="#3b97d3"/><path d="m298.667969 246.808594v-110.273438h-34.132813v136.53125zm0 0" fill="#bdc3c7"/><path d="m307.199219 145.066406h-51.199219c-4.710938 0-8.535156-3.820312-8.535156-8.53125 0-4.714844 3.824218-8.535156 8.535156-8.535156h51.199219c4.714843 0 8.535156 3.820312 8.535156 8.535156 0 4.710938-3.820313 8.53125-8.535156 8.53125zm0 0" fill="#e6e7e8"/><g fill="#35495e"><path d="m102.398438 196.265625c-4.710938 0-8.53125-3.820313-8.53125-8.53125v-8.535156c0-4.710938 3.820312-8.53125 8.53125-8.53125 4.714843 0 8.535156 3.820312 8.535156 8.53125v8.535156c0 4.710937-3.820313 8.53125-8.535156 8.53125zm0 0"/><path d="m128 196.265625c-4.710938 0-8.535156-3.820313-8.535156-8.53125v-8.535156c0-4.710938 3.824218-8.53125 8.535156-8.53125s8.535156 3.820312 8.535156 8.53125v8.535156c0 4.710937-3.824218 8.53125-8.535156 8.53125zm0 0"/><path d="m179.199219 196.265625c-4.710938 0-8.53125-3.820313-8.53125-8.53125v-8.535156c0-4.710938 3.820312-8.53125 8.53125-8.53125 4.714843 0 8.535156 3.820312 8.535156 8.53125v8.535156c0 4.710937-3.820313 8.53125-8.535156 8.53125zm0 0"/><path d="m153.601562 196.265625c-4.714843 0-8.535156-3.820313-8.535156-8.53125v-8.535156c0-4.710938 3.820313-8.53125 8.535156-8.53125 4.710938 0 8.53125 3.820312 8.53125 8.53125v8.535156c0 4.710937-3.820312 8.53125-8.53125 8.53125zm0 0"/></g><path d="m136.535156 264.535156v-42.667968c0-4.714844 3.820313-8.535157 8.53125-8.535157h85.332032c4.714843 0 8.535156 3.820313 8.535156 8.535157v25.597656l-85.332032 25.601562" fill="#2980ba"/><path d="m145.066406 264.535156v-42.667968c-.355468-4.308594 2.808594-8.105469 7.109375-8.535157h71.113281c4.300782.429688 7.46875 4.226563 7.109376 8.535157v25.597656l-71.109376 25.601562" fill="#3b97d3"/><path d="m503.464844 212.90625c0 5.753906-1.949219 11.339844-5.535156 15.839844l-8.117188 10.1875-150.953125 17.066406c-1.953125 0-3.847656.6875-5.347656 1.9375l-46.449219 38.765625c-1.519531 1.269531-3.4375 1.964844-5.417969 1.964844h-128.042969c-2.265624-.019531-4.433593-.902344-6.058593-2.476563l-20.566407-20.648437c-1.617187-1.585938-3.792968-2.476563-6.058593-2.476563l-107.519531-17.066406-3.074219-9.472656c-2.621094-5.289063-2.324219-11.558594.785156-16.574219 3.109375-5.019531 8.585937-8.078125 14.492187-8.085937h110.933594l23.125 23.125c1.582032 1.585937 3.730469 2.472656 5.972656 2.472656h104.363282c2.007812.003906 3.953125-.703125 5.496094-1.992188l46.347656-38.679687c1.542968-1.289063 3.488281-1.992188 5.5-1.992188h168.019531c4.476563 0 8.105469 3.628907 8.105469 8.105469zm0 0" fill="#c03a2b"/><path d="m491.148438 212.90625c.011718 5.726562-1.867188 11.292969-5.347657 15.839844l-7.832031 10.1875-141.964844 17.066406c-1.898437.003906-3.730468.691406-5.164062 1.9375l-44.847656 38.765625c-1.449219 1.261719-3.304688 1.960937-5.226563 1.964844h-123.628906c-2.199219-.023438-4.300781-.914063-5.851563-2.476563l-19.855468-20.648437c-1.539063-1.578125-3.644532-2.46875-5.847657-2.476563l-99.980469-17.066406-2.96875-9.472656c-2.59375-5.203125-2.355468-11.375.628907-16.363282 2.984375-4.992187 8.308593-8.121093 14.121093-8.296874h103.277344l22.328125 23.125c1.503907 1.574218 3.585938 2.46875 5.761719 2.472656h100.765625c1.949219-.003906 3.835937-.710938 5.304687-1.992188l44.753907-38.679687c1.472656-1.28125 3.355469-1.988281 5.308593-1.992188h158.4375c4.402344.078125 7.90625 3.707031 7.828126 8.105469zm0 0" fill="#e64c3c"/><path d="m8.535156 331.378906h494.929688v172.085938h-494.929688zm0 0" fill="#547580"/><path d="m179.199219 417.195312c-.074219 6.367188-4.855469 11.695313-11.179688 12.457032l-38.738281 5.460937c-.625.074219-1.25.101563-1.878906.085938h-56.492188c-2.570312-.011719-5.085937-.75-7.25-2.132813l-32.257812-20.90625c-3.703125-2.332031-5.902344-6.4375-5.800782-10.8125.105469-4.375 2.503907-8.371094 6.3125-10.519531l23.210938-13.570313c2.011719-1.195312 4.316406-1.816406 6.65625-1.792968h71.425781c2.542969.011718 5.03125.753906 7.167969 2.136718l21.160156 13.738282c1.234375.78125 2.332032 1.761718 3.242188 2.898437l11.777344 15.363281c1.710937 2.160157 2.640624 4.835938 2.644531 7.59375zm0 0" fill="#fff"/><path d="m469.332031 445.355469c-.046875 5.894531-4.144531 10.984375-9.898437 12.289062l-12.203125 2.984375-1.535157.257813-68.09375 8.277343c-1.167968.097657-2.339843.070313-3.5-.085937l-44.542968-6.144531c-3.773438-.429688-7.152344-2.53125-9.203125-5.722656-2.050781-3.191407-2.558594-7.140626-1.378907-10.746094l.765626-2.132813c1.84375-5.4375-.269532-11.433593-5.117188-14.507812l-18.261719-11.691407-22.699219-14.675781c-2.421874-1.507812-4.257812-3.796875-5.207031-6.488281l-3.242187-9.554688c-.433594-1.292968-.664063-2.648437-.679688-4.011718.046875-5.515625 3.675782-10.355469 8.957032-11.945313l12.03125-3.839843c1.351562-.441407 2.761718-.671876 4.183593-.683594h67.839844c.429687-.015625.855469.015625 1.28125.085937l83.027344 8.019531c2.976562.257813 5.777343 1.519532 7.9375 3.585938l11.945312 11.605469c2.757813 2.632812 4.136719 6.394531 3.734375 10.1875-.398437 3.792969-2.535156 7.183593-5.78125 9.183593-3.605468 2.273438-5.792968 6.234376-5.804687 10.496094.007812 3.359375 1.398437 6.566406 3.839843 8.871094l7.765626 7.511719c2.449218 2.300781 3.839843 5.511719 3.839843 8.875zm0 0" fill="#fff"/><path d="m179.199219 417.195312v34.21875c-.039063 6.398438-4.824219 11.769532-11.179688 12.542969l-38.738281 5.375c-.625.074219-1.25.101563-1.878906.085938h-56.492188c-2.574218.03125-5.101562-.710938-7.25-2.132813l-32.257812-20.90625c-3.605469-2.273437-5.792969-6.234375-5.800782-10.496094v-34.21875c.046876 4.25 2.226563 8.195313 5.800782 10.496094l32.257812 20.90625c2.164063 1.382813 4.679688 2.121094 7.25 2.132813h56.492188c.628906.015625 1.253906-.011719 1.878906-.085938l38.738281-5.460937c6.324219-.761719 11.105469-6.089844 11.179688-12.457032zm0 0" fill="#95a5a5"/><path d="m469.332031 445.355469v34.304687c-.046875 5.894532-4.144531 10.984375-9.898437 12.285156l-12.203125 2.902344c-.492188.167969-1.011719.253906-1.535157.257813l-68.09375 8.277343c-1.167968.082032-2.335937.082032-3.5 0l-44.542968-6.230468c-3.777344-.417969-7.164063-2.519532-9.214844-5.714844-2.054688-3.195312-2.554688-7.148438-1.367188-10.753906l.765626-2.132813c1.84375-5.414062-.273438-11.382812-5.117188-14.421875l-18.261719-11.777344-22.699219-14.675781c-2.421874-1.507812-4.257812-3.796875-5.207031-6.488281l-3.242187-9.46875c-.433594-1.324219-.664063-2.707031-.679688-4.097656v-34.21875c.015625 1.363281.246094 2.71875.679688 4.011718l3.242187 9.554688c.949219 2.691406 2.785157 4.980469 5.207031 6.488281l22.699219 14.675781 18.261719 11.691407c4.847656 3.074219 6.960938 9.070312 5.117188 14.507812l-.765626 2.132813c-1.179687 3.605468-.671874 7.554687 1.378907 10.746094 2.050781 3.191406 5.429687 5.292968 9.203125 5.722656l44.542968 6.144531c1.160157.15625 2.332032.183594 3.5.085937l68.09375-8.277343 1.535157-.257813 12.203125-2.984375c5.753906-1.304687 9.851562-6.394531 9.898437-12.289062zm0 0" fill="#95a5a5"/><path d="m489.8125 238.933594-15.785156 45.3125c-3.0625 3.855468-7.1875 6.730468-11.863282 8.277344l-8.363281 2.816406c-6.449219 2.125-11.792969 6.730468-14.847656 12.796875l-5.203125 10.496093c-4.328125 8.671876-13.179688 14.15625-22.871094 14.167969h-354.386718c-9.699219.011719-18.5625-5.480469-22.871094-14.167969l-20.222656-62.632812h107.519531c2.265625 0 4.441406.890625 6.058593 2.476562l20.566407 20.648438c1.625 1.574219 3.792969 2.457031 6.058593 2.476562h128c1.996094.011719 3.929688-.683593 5.460938-1.964843l46.421875-38.742188c1.503906-1.265625 3.40625-1.960937 5.375-1.960937zm0 0" fill="#802f34"/><path d="m477.867188 238.933594-14.988282 45.3125c-2.851562 3.8125-6.769531 6.695312-11.257812 8.277344l-7.9375 2.816406c-6.21875 2.210937-11.292969 6.820312-14.09375 12.796875l-4.941406 10.496093c-3.886719 8.527344-12.34375 14.046876-21.714844 14.167969h-336.425782c-9.375-.101562-17.839843-5.625-21.707031-14.167969l-19.199219-62.632812h102.066407c2.175781.011719 4.25.902344 5.753906 2.476562l19.523437 20.648438c1.511719 1.558594 3.582032 2.449219 5.75 2.476562h121.515626c1.910156.007813 3.757812-.691406 5.183593-1.964843l44.070313-38.742188c1.402344-1.257812 3.21875-1.953125 5.101562-1.960937zm0 0" fill="#c03a2b"/><path d="m426.667969 256c0 9.425781-7.640625 17.066406-17.066407 17.066406-9.425781 0-17.066406-7.640625-17.066406-17.066406s7.640625-17.066406 17.066406-17.066406c9.425782 0 17.066407 7.640625 17.066407 17.066406zm0 0" fill="#35495e"/><path d="m409.601562 281.601562c-14.140624 0-25.601562-11.464843-25.601562-25.601562s11.460938-25.601562 25.601562-25.601562c14.136719 0 25.597657 11.464843 25.597657 25.601562-.015625 14.132812-11.46875 25.585938-25.597657 25.601562zm0-34.136718c-4.714843 0-8.535156 3.824218-8.535156 8.535156s3.820313 8.535156 8.535156 8.535156c4.710938 0 8.53125-3.824218 8.53125-8.535156-.003906-4.710938-3.824218-8.527344-8.53125-8.535156zm0 0" fill="#c03a2b"/><path d="m503.464844 341.332031h-494.929688c-4.714844 0-8.535156-3.820312-8.535156-8.53125 0-4.714843 3.820312-8.535156 8.535156-8.535156h494.929688c4.714844 0 8.535156 3.820313 8.535156 8.535156 0 4.710938-3.820312 8.53125-8.535156 8.53125zm0 0" fill="#464f5d"/></svg>