<?xml version="1.0"?>
<svg xmlns="http://www.w3.org/2000/svg" viewBox="0 0 26 26" enable-background="new 0 0 26 26">
    <g fill="#3339FF" stroke="none">
		<path d="M 23.28125 2.03125 C 22.413477 1.9632813 21.4 2.10625 20.3125 2.59375 C 20.3125 2.59375 5.5 9.20625 5 9.40625 C 4.5 9.60625 4.2125 9.39375 3.8125 9.09375 C 3.1125 8.49375 1.9875 7.8 1.6875 7.5 C 1.0875 7.1 -0.20625 7.29375 0.09375 8.09375 C 0.49375 8.89375 1.6 11.40625 2 12.40625 C 2.7 13.80625 5.89375 13.40625 11.59375 10.90625 C 12.103478 10.685047 12.768868 10.376814 13.34375 10.125 L 11.90625 17.90625 C 11.70625 18.60625 11.89375 18.7875 12.09375 18.6875 L 13 18.3125 C 13.4 18.1125 14.0125 17.5125 14.3125 16.8125 L 18.4375 7.84375 C 22.525754 5.9460172 26.252376 4.0371911 26 3.40625 C 25.75 2.84375 24.727539 2.1445312 23.28125 2.03125 z M 7.1875 3.0625 C 6.8125 3.0625 6.4375 3.0875 6.1875 3.1875 L 5.40625 3.59375 C 5.10625 3.69375 5.2125 3.9125 5.8125 4.3125 L 9.1875 6.40625 L 13 4.6875 L 8.3125 3.1875 C 7.9625 3.0875 7.5625 3.0625 7.1875 3.0625 z M 0.90625 24 A 1.001098 1.001098 0 0 0 1.09375 26 L 25.09375 26 A 1.0001 1.0001 0 1 0 25.09375 24 L 1.09375 24 A 1.0001 1.0001 0 0 0 1 24 A 1.001098 1.001098 0 0 0 0.90625 24 z"/>
	</g>
</svg>
