<?xml version="1.0" encoding="iso-8859-1"?>
<!-- Generator: Adobe Illustrator 19.0.0, SVG Export Plug-In . SVG Version: 6.00 Build 0)  -->
<svg version="1.1" id="Capa_1" xmlns="http://www.w3.org/2000/svg" xmlns:xlink="http://www.w3.org/1999/xlink" x="0px" y="0px"
	 viewBox="0 0 512 512" style="enable-background:new 0 0 512 512;" xml:space="preserve">
<g>
	<g>
		<path d="M462.052,420.362V176.368h-60.296v243.994h-30V146.368v-84.73H140.244v84.729v273.994h-30V176.368H49.948v243.994H0v30
			h512v-30H462.052z M177.311,101.059h55.634v30h-55.634V101.059z M177.311,176.913h55.634v30h-55.634V176.913z M177.311,252.765
			h55.634v30h-55.634V252.765z M332.335,420.362h-30v-64.37h-92.669v64.37h-30v-94.37h152.669V420.362z M334.689,282.765h-55.633
			v-30h55.633V282.765z M334.689,206.913h-55.633v-30h55.633V206.913z M334.689,131.059h-55.633v-30h55.633V131.059z"
			style="fill:#561f1f;fill-opacity:0.5;fill-rule:evenodd;stroke:none;stroke-width:6;stroke-linecap:round;stroke-linejoin:miter;stroke-miterlimit:4;stroke-dasharray:none;stroke-opacity:1"
		/>
	</g>
</g>
<g>
</g>
<g>
</g>
<g>
</g>
<g>
</g>
<g>
</g>
<g>
</g>
<g>
</g>
<g>
</g>
<g>
</g>
<g>
</g>
<g>
</g>
<g>
</g>
<g>
</g>
<g>
</g>
<g>
</g>
</svg>
