<?xml version="1.0" standalone="no"?>
<!DOCTYPE svg PUBLIC "-//W3C//DTD SVG 20010904//EN"
 "http://www.w3.org/TR/2001/REC-SVG-20010904/DTD/svg10.dtd">
<svg version="1.0" xmlns="http://www.w3.org/2000/svg"
 width="128pt" height="128t" viewBox="0 0 399.000000 400.000000"
 preserveAspectRatio="xMidYMid meet">
<metadata>
Created by potrace 1.15, written by Peter Selinger 2001-2017
</metadata>
<g transform="translate(0.000000,400.000000) scale(0.100000,-0.100000)"
fill="#0000FF" stroke="none">
<path d="M1730 3970 c-224 -31 -430 -96 -640 -202 -392 -197 -681 -486 -878
-878 -87 -172 -139 -320 -179 -509 -26 -118 -27 -142 -27 -386 0 -244 1 -268
27 -386 40 -189 92 -337 179 -509 197 -392 486 -681 878 -878 172 -87 320
-139 509 -179 118 -26 142 -27 386 -27 244 0 268 1 386 27 189 40 337 92 509
179 392 197 681 486 878 878 87 172 139 320 179 509 26 118 27 142 27 386 0
244 -1 268 -27 386 -40 189 -92 337 -179 509 -197 392 -486 681 -878 878 -171
86 -321 139 -504 178 -106 23 -150 26 -351 29 -126 2 -259 0 -295 -5z m60
-1060 l0 -790 -756 0 -756 0 7 63 c11 100 43 248 75 349 41 127 156 353 237
468 87 122 271 306 393 393 119 84 335 194 466 236 105 34 260 69 307 70 l27
1 0 -790z m540 770 c150 -31 271 -73 425 -150 181 -91 303 -178 445 -320 142
-142 229 -264 320 -445 98 -196 153 -381 175 -582 l7 -63 -766 0 -766 0 0 790
0 790 31 0 c17 0 75 -9 129 -20z m-540 -2661 l0 -721 -57 7 c-84 10 -267 59
-359 95 -227 90 -422 218 -594 390 -172 172 -300 367 -390 594 -34 87 -90 292
-90 332 l0 24 745 0 745 0 0 -721z m1890 697 c0 -40 -56 -245 -90 -332 -48
-121 -133 -278 -208 -384 -85 -121 -270 -306 -392 -393 -115 -81 -341 -196
-468 -237 -103 -33 -273 -70 -321 -70 l-31 0 0 720 0 720 755 0 755 0 0 -24z"/>
</g>
</svg>
