<svg xmlns="http://www.w3.org/2000/svg" xmlns:xlink="http://www.w3.org/1999/xlink" version="1.1" x="0px" y="0px" viewBox="0 0 100 125" enable-background="new 0 0 100 100" xml:space="preserve">
<path style="fill:#00FF00;" d="M50.004,9.238C27.488,9.241,9.242,27.487,9.239,49.998c0.003,22.514,18.249,40.759,40.765,40.764  c22.51-0.005,40.757-18.25,40.757-40.764C90.761,27.486,72.514,9.241,50.004,9.238z M63.692,72.566  c-3.664,2.23-7.903,3.588-12.458,3.806V63.027c6.246-0.583,11.212-5.55,11.796-11.797h13.342c-0.163,3.473-0.988,6.764-2.362,9.76  c-1.24-0.815-2.718-1.3-4.313-1.3c-4.34,0-7.858,3.52-7.858,7.86C61.84,69.467,62.553,71.201,63.692,72.566z M59.651,45.587  c0.453,0.988,0.767,2.055,0.899,3.179h-7.856L59.651,45.587z M51.235,48.34v-8.887c1.907,0.223,3.654,0.954,5.114,2.046  L51.235,48.34z M60.55,51.229c-0.575,4.882-4.433,8.744-9.315,9.318v-9.318H60.55z M63.03,48.766  c-0.139-1.49-0.534-2.904-1.131-4.206l12.11-5.533c1.368,2.988,2.2,6.274,2.366,9.74H63.03z M76.259,37.998l8.548-3.906  c2.058,4.492,3.282,9.447,3.456,14.674H78.84C78.679,44.935,77.769,41.3,76.259,37.998z M51.235,11.736  c8.12,0.271,15.593,3.061,21.671,7.61l-5.625,7.526c-4.509-3.373-10.036-5.461-16.046-5.715V11.736z M51.233,23.623  c5.455,0.263,10.468,2.171,14.563,5.235l-7.97,10.664c-1.874-1.402-4.131-2.321-6.593-2.552V23.623z M48.768,88.262  C28.599,87.586,12.412,71.399,11.74,51.229h9.421c0.632,14.976,12.632,26.975,27.607,27.61V88.262z M48.768,76.371  c-13.611-0.654-24.489-11.529-25.14-25.142h13.345c0.584,6.248,5.549,11.213,11.795,11.797V76.371z M48.768,60.547  c-4.879-0.573-8.744-4.436-9.315-9.318h9.315V60.547z M48.768,48.766h-9.315c0.571-4.878,4.433-8.742,9.315-9.313V48.766z   M48.768,36.97c-6.244,0.588-11.211,5.553-11.795,11.797H23.628c0.119-2.477,0.579-4.861,1.33-7.112  c0.053,0.002,0.105,0.008,0.158,0.008c2.152,0,3.898-1.746,3.898-3.898c0-0.951-0.341-1.822-0.907-2.498  c4.524-6.711,12.043-11.228,20.661-11.643V36.97z M48.768,21.158c-9.51,0.402-17.813,5.392-22.773,12.811  c-0.283-0.065-0.576-0.103-0.879-0.103c-2.153,0-3.899,1.745-3.899,3.898c0,1.213,0.555,2.297,1.424,3.012  c-0.85,2.525-1.361,5.206-1.479,7.99H11.74c0.672-20.167,16.859-36.355,37.028-37.03V21.158z M51.235,88.26v-9.421  c5.308-0.225,10.242-1.864,14.431-4.575c1.184,0.713,2.552,1.145,4.032,1.145c4.341,0,7.86-3.518,7.86-7.859  c0-1.81-0.635-3.452-1.661-4.78c1.734-3.506,2.769-7.407,2.944-11.541h9.424C87.591,71.399,71.398,87.588,51.235,88.26z"/>
</svg>
