<svg xmlns="http://www.w3.org/2000/svg" xmlns:xlink="http://www.w3.org/1999/xlink" version="1.1" x="0px" y="0px" viewBox="0 0 100 125" enable-background="new 0 0 100 100" xml:space="preserve">
<g>
<path fill="#000000" d="M26.076,70.882c0-0.533,0.432-0.965,0.965-0.965h0.643c0.533,0,0.965,0.432,0.965,0.965v2.894h1.929v-1.608   c0-0.533,0.432-0.965,0.965-0.965h0.643c0.533,0,0.965,0.432,0.965,0.965v1.608h2.573v-2.894c0-0.533,0.432-0.965,0.965-0.965   h0.643c0.533,0,0.965,0.432,0.965,0.965v2.894h1.929v-1.608c0-0.533,0.432-0.965,0.965-0.965h0.643   c0.533,0,0.965,0.432,0.965,0.965v1.608h1.929v-2.894c0-0.533,0.432-0.965,0.965-0.965h0.643c0.533,0,0.965,0.432,0.965,0.965   v2.894h2.573v-1.608c0-0.533,0.432-0.965,0.965-0.965h0.643c0.533,0,0.965,0.432,0.965,0.965v1.608h3.216v-2.894   c0-0.533,0.432-0.965,0.965-0.965h0.643c0.533,0,0.965,0.432,0.965,0.965v2.894h2.573v-1.608c0-0.533,0.432-0.965,0.965-0.965   h0.643c0.533,0,0.965,0.432,0.965,0.965v1.608h3.216v-2.894c0-0.533,0.432-0.965,0.965-0.965h0.643   c0.533,0,0.965,0.432,0.965,0.965v2.894h2.573v-1.608c0-0.533,0.432-0.965,0.965-0.965h0.643c0.533,0,0.965,0.432,0.965,0.965   v1.608h3.216v-2.894c0-0.533,0.432-0.965,0.965-0.965h0.643c0.533,0,0.965,0.432,0.965,0.965v2.894h2.573v-1.608   c0-0.533,0.432-0.965,0.965-0.965h0.643c0.533,0,0.965,0.432,0.965,0.965v1.608h1.929V8.293L21.667,73.776h4.409V70.882z    M44.649,63.749l32.539-30.717c0.28-0.263,0.691-0.337,1.044-0.184c0.354,0.152,0.583,0.501,0.583,0.886V64.45   c0,0.533-0.432,0.965-0.965,0.965H45.311c-0.395,0-0.751-0.241-0.897-0.609C44.269,64.439,44.362,64.02,44.649,63.749z"/>
<path fill="#000000" d="M13.257,65.736l0.455-0.455c0.377-0.377,0.987-0.377,1.364,0l1.753,1.753l1.365-1.364l-0.94-0.94   c-0.377-0.377-0.377-0.987,0-1.364l0.455-0.455c0.377-0.377,0.987-0.377,1.364,0l0.94,0.94l1.819-1.819l-1.753-1.753   c-0.181-0.181-0.283-0.426-0.283-0.682c0-0.256,0.102-0.502,0.283-0.683l0.455-0.455c0.377-0.376,0.987-0.376,1.364,0.001   l1.752,1.752l1.364-1.364l-0.94-0.94c-0.377-0.377-0.377-0.987,0-1.364l0.455-0.455c0.377-0.377,0.987-0.377,1.364,0l0.94,0.94   l1.365-1.365l-1.752-1.752c-0.377-0.377-0.377-0.987,0-1.364l0.455-0.455c0.377-0.377,0.987-0.377,1.364,0l1.752,1.752l1.819-1.819   l-0.94-0.94c-0.377-0.377-0.377-0.987,0-1.364l0.455-0.455c0.377-0.377,0.987-0.377,1.364,0l0.94,0.94l2.274-2.274l-1.753-1.753   c-0.377-0.377-0.377-0.987,0-1.364l0.455-0.455c0.377-0.377,0.987-0.377,1.364,0l1.753,1.753l1.82-1.82l-0.94-0.94   c-0.377-0.377-0.377-0.987,0-1.364l0.455-0.455c0.377-0.377,0.987-0.377,1.364,0l0.94,0.94l2.274-2.274l-1.753-1.753   c-0.377-0.377-0.377-0.987,0-1.364l0.455-0.455c0.377-0.377,0.987-0.377,1.364,0l1.753,1.753l1.819-1.819l-0.94-0.94   c-0.377-0.377-0.377-0.987,0-1.364l0.455-0.455c0.377-0.377,0.987-0.377,1.364,0l0.94,0.94l2.274-2.274l-1.753-1.753   c-0.181-0.181-0.283-0.426-0.283-0.682c0-0.256,0.102-0.502,0.283-0.683l0.455-0.455c0.377-0.376,0.987-0.376,1.364,0.001   l1.753,1.753l0.513-0.513c-5.086-4.748-11.679-7.352-18.672-7.352c-7.315,0.001-14.193,2.85-19.366,8.022   c-9.681,9.681-10.578,24.862-2.705,35.572C12.99,66.148,13.078,65.915,13.257,65.736z M19.514,34.785   c5.932-5.932,15.166-7.185,22.457-3.05c0.261,0.148,0.439,0.41,0.48,0.707c0.041,0.298-0.059,0.598-0.271,0.811L18.062,57.576   c-0.182,0.183-0.429,0.285-0.685,0.285c-0.041,0-0.082-0.003-0.123-0.008c-0.298-0.038-0.561-0.214-0.712-0.474   C12.309,50.061,13.531,40.77,19.514,34.785z"/>
<polygon fill="#000000" points="76.886,35.97 47.739,63.485 76.886,63.485  "/>
<path fill="#000000" d="M39.886,32.827c-6.339-2.98-13.99-1.693-19.008,3.323c-5.063,5.064-6.325,12.769-3.262,19.136L39.886,32.827z"/>
<path fill="#000000" d="M92,78.921H14.821c-0.177,0-0.322,0.144-0.322,0.322v13.506c0,0.177,0.144,0.322,0.322,0.322h0.965v-2.894   c0-0.533,0.432-0.965,0.965-0.965h0.643c0.533,0,0.965,0.432,0.965,0.965v2.894h1.929v-1.608c0-0.533,0.432-0.965,0.965-0.965   h0.643c0.533,0,0.965,0.432,0.965,0.965v1.608h2.573v-2.894c0-0.533,0.432-0.965,0.965-0.965h0.643   c0.533,0,0.965,0.432,0.965,0.965v2.894h1.929v-1.608c0-0.533,0.432-0.965,0.965-0.965h0.643c0.533,0,0.965,0.432,0.965,0.965   v1.608h1.929v-2.894c0-0.533,0.432-0.965,0.965-0.965h0.643c0.533,0,0.965,0.432,0.965,0.965v2.894h2.573v-1.608   c0-0.533,0.432-0.965,0.965-0.965h0.643c0.533,0,0.965,0.432,0.965,0.965v1.608h3.216v-2.894c0-0.533,0.432-0.965,0.965-0.965   h0.643c0.533,0,0.965,0.432,0.965,0.965v2.894h2.573v-1.608c0-0.533,0.432-0.965,0.965-0.965h0.643   c0.533,0,0.965,0.432,0.965,0.965v1.608h3.216v-2.894c0-0.533,0.432-0.965,0.965-0.965h0.643c0.533,0,0.965,0.432,0.965,0.965   v2.894h2.573v-1.608c0-0.533,0.432-0.965,0.965-0.965h0.643c0.533,0,0.965,0.432,0.965,0.965v1.608h3.216v-2.894   c0-0.533,0.432-0.965,0.965-0.965h0.643c0.533,0,0.965,0.432,0.965,0.965v2.894h2.573v-1.608c0-0.533,0.432-0.965,0.965-0.965   h0.643c0.533,0,0.965,0.432,0.965,0.965v1.608h3.216v-2.894c0-0.533,0.432-0.965,0.965-0.965h0.643   c0.533,0,0.965,0.432,0.965,0.965v2.894h2.573v-1.608c0-0.533,0.432-0.965,0.965-0.965h0.643c0.533,0,0.965,0.432,0.965,0.965   v1.608h3.216v-2.894c0-0.533,0.432-0.965,0.965-0.965h0.643c0.533,0,0.965,0.432,0.965,0.965v2.894H92   c0.177,0,0.322-0.144,0.322-0.322V79.243C92.321,79.066,92.177,78.921,92,78.921z"/>
<path fill="#FF0000" d="M92,76.992H14.821c-1.241,0-2.251,1.01-2.251,2.251v13.506c0,1.241,1.01,2.251,2.251,2.251h1.929h0.643h3.859h0.643h4.502   h0.643H30.9h0.643h3.859h0.643h4.502h0.643h5.145h0.643h4.502h0.643h5.145h0.643h4.502h0.643h5.145h0.643h4.502h0.643h5.145h0.643   h4.502h0.643h5.145h0.643H92c1.241,0,2.251-1.01,2.251-2.251V79.243C94.251,78.002,93.241,76.992,92,76.992z M92.321,92.749   c0,0.177-0.144,0.322-0.322,0.322h-0.322v-2.894c0-0.533-0.432-0.965-0.965-0.965H90.07c-0.533,0-0.965,0.432-0.965,0.965v2.894   H85.89v-1.608c0-0.533-0.432-0.965-0.965-0.965h-0.643c-0.533,0-0.965,0.432-0.965,0.965v1.608h-2.573v-2.894   c0-0.533-0.432-0.965-0.965-0.965h-0.643c-0.533,0-0.965,0.432-0.965,0.965v2.894h-3.216v-1.608c0-0.533-0.432-0.965-0.965-0.965   h-0.643c-0.533,0-0.965,0.432-0.965,0.965v1.608h-2.573v-2.894c0-0.533-0.432-0.965-0.965-0.965h-0.643   c-0.533,0-0.965,0.432-0.965,0.965v2.894h-3.216v-1.608c0-0.533-0.432-0.965-0.965-0.965h-0.643c-0.533,0-0.965,0.432-0.965,0.965   v1.608h-2.573v-2.894c0-0.533-0.432-0.965-0.965-0.965h-0.643c-0.533,0-0.965,0.432-0.965,0.965v2.894h-3.216v-1.608   c0-0.533-0.432-0.965-0.965-0.965h-0.643c-0.533,0-0.965,0.432-0.965,0.965v1.608h-2.573v-2.894c0-0.533-0.432-0.965-0.965-0.965   h-0.643c-0.533,0-0.965,0.432-0.965,0.965v2.894h-3.216v-1.608c0-0.533-0.432-0.965-0.965-0.965h-0.643   c-0.533,0-0.965,0.432-0.965,0.965v1.608H37.01v-2.894c0-0.533-0.432-0.965-0.965-0.965h-0.643c-0.533,0-0.965,0.432-0.965,0.965   v2.894h-1.929v-1.608c0-0.533-0.432-0.965-0.965-0.965H30.9c-0.533,0-0.965,0.432-0.965,0.965v1.608h-1.929v-2.894   c0-0.533-0.432-0.965-0.965-0.965h-0.643c-0.533,0-0.965,0.432-0.965,0.965v2.894h-2.573v-1.608c0-0.533-0.432-0.965-0.965-0.965   h-0.643c-0.533,0-0.965,0.432-0.965,0.965v1.608h-1.929v-2.894c0-0.533-0.432-0.965-0.965-0.965h-0.643   c-0.533,0-0.965,0.432-0.965,0.965v2.894h-0.965c-0.177,0-0.322-0.144-0.322-0.322V79.243c0-0.177,0.144-0.322,0.322-0.322H92   c0.177,0,0.322,0.144,0.322,0.322V92.749z"/>
<path fill="#FF0000" d="M15.004,71.188c0.256,0,0.501-0.102,0.682-0.283l1.349-1.349c0.007-0.007,0.017-0.009,0.024-0.016l0.455-0.455   c0.007-0.007,0.009-0.017,0.016-0.024l2.69-2.69c0.007-0.006,0.016-0.008,0.022-0.015l0.455-0.455   c0.007-0.007,0.008-0.016,0.015-0.022l3.147-3.147c0.007-0.006,0.016-0.008,0.022-0.015l0.455-0.455   c0.007-0.007,0.008-0.015,0.015-0.022l2.691-2.691c0.007-0.006,0.016-0.008,0.023-0.015l0.455-0.455   c0.014-0.014,0.025-0.031,0.038-0.046l2.669-2.669c0.007-0.006,0.015-0.008,0.022-0.014l0.455-0.455   c0.006-0.006,0.008-0.015,0.014-0.022l3.146-3.146c0.007-0.007,0.017-0.009,0.023-0.016l0.455-0.455   c0.007-0.007,0.009-0.016,0.016-0.023l3.601-3.601c0.006-0.006,0.015-0.008,0.021-0.014l0.455-0.455   c0.006-0.006,0.008-0.015,0.014-0.021l3.148-3.148c0.006-0.006,0.015-0.008,0.021-0.014l0.455-0.455   c0.006-0.006,0.008-0.015,0.014-0.021l3.601-3.601c0.007-0.007,0.016-0.008,0.023-0.015l0.455-0.455   c0.007-0.007,0.009-0.016,0.015-0.023l3.147-3.147c0.006-0.006,0.015-0.008,0.021-0.014l0.455-0.455   c0.006-0.006,0.008-0.015,0.014-0.021l3.604-3.604c0.006-0.006,0.015-0.008,0.021-0.014l0.455-0.455   c0.006-0.006,0.008-0.014,0.014-0.021l1.872-1.872c0.181-0.181,0.283-0.426,0.283-0.682s-0.102-0.501-0.283-0.682   c-11.43-11.431-30.03-11.43-41.46,0.001c-11.43,11.43-11.43,30.029,0,41.459C14.503,71.086,14.748,71.188,15.004,71.188z    M15.686,30.81c5.173-5.173,12.051-8.022,19.366-8.022c6.993,0,13.585,2.603,18.672,7.352l-0.513,0.513l-1.753-1.753   c-0.377-0.377-0.987-0.377-1.364-0.001l-0.455,0.455c-0.181,0.181-0.283,0.426-0.283,0.683c0,0.256,0.102,0.501,0.283,0.682   l1.753,1.753l-2.274,2.274l-0.94-0.94c-0.377-0.377-0.987-0.377-1.364,0l-0.455,0.455c-0.377,0.377-0.377,0.987,0,1.364l0.94,0.94   l-1.819,1.819l-1.753-1.753c-0.377-0.377-0.987-0.377-1.364,0l-0.455,0.455c-0.377,0.377-0.377,0.987,0,1.364l1.753,1.753   l-2.274,2.274l-0.94-0.94c-0.377-0.377-0.987-0.377-1.364,0l-0.455,0.455c-0.377,0.377-0.377,0.987,0,1.364l0.94,0.94l-1.82,1.82   l-1.753-1.753c-0.377-0.377-0.987-0.377-1.364,0l-0.455,0.455c-0.377,0.377-0.377,0.987,0,1.364l1.753,1.753l-2.274,2.274   l-0.94-0.94c-0.377-0.377-0.987-0.377-1.364,0l-0.455,0.455c-0.377,0.377-0.377,0.987,0,1.364l0.94,0.94l-1.819,1.819l-1.752-1.752   c-0.377-0.377-0.987-0.377-1.364,0l-0.455,0.455c-0.377,0.377-0.377,0.987,0,1.364l1.752,1.752l-1.365,1.365l-0.94-0.94   c-0.377-0.377-0.987-0.377-1.364,0l-0.455,0.455c-0.377,0.377-0.377,0.987,0,1.364l0.94,0.94l-1.364,1.364l-1.752-1.752   c-0.377-0.377-0.987-0.377-1.364-0.001l-0.455,0.455c-0.181,0.181-0.283,0.426-0.283,0.683c0,0.256,0.102,0.501,0.283,0.682   l1.753,1.753l-1.819,1.819l-0.94-0.94c-0.377-0.377-0.987-0.377-1.364,0l-0.455,0.455c-0.377,0.377-0.377,0.987,0,1.364l0.94,0.94   l-1.365,1.364l-1.753-1.753c-0.377-0.377-0.987-0.377-1.364,0l-0.455,0.455c-0.179,0.179-0.266,0.411-0.275,0.645   C5.108,55.672,6.005,40.491,15.686,30.81z"/>
<path fill="#FF0000" d="M17.254,57.853c0.041,0.006,0.082,0.008,0.123,0.008c0.256,0,0.503-0.102,0.685-0.285L42.18,33.254   c0.212-0.214,0.312-0.514,0.271-0.811c-0.041-0.298-0.218-0.559-0.48-0.707c-7.291-4.135-16.525-2.882-22.457,3.05   c-5.983,5.984-7.205,15.276-2.972,22.595C16.693,57.64,16.956,57.815,17.254,57.853z M20.878,36.149   c5.017-5.015,12.669-6.302,19.008-3.323l-22.27,22.459C14.554,48.918,15.815,41.214,20.878,36.149z"/>
<path fill="#FF0000" d="M45.311,65.415H77.85c0.533,0,0.965-0.432,0.965-0.965V33.733c0-0.385-0.229-0.734-0.583-0.886   c-0.353-0.153-0.764-0.079-1.044,0.184L44.649,63.749c-0.287,0.271-0.38,0.69-0.234,1.058   C44.561,65.174,44.916,65.415,45.311,65.415z M76.886,35.97v27.515H47.739L76.886,35.97z"/>
<path fill="#FF0000" d="M18.446,75.11c0.149,0.361,0.501,0.595,0.891,0.595h7.704h0.643h3.859h0.643h4.502h0.643h3.859h0.643h3.859h0.643h4.502   h0.643h5.145h0.643h4.502h0.643h5.145h0.643h4.502h0.643h5.145h0.643h4.502h0.643h3.859c0.533,0,0.965-0.432,0.965-0.965V5.965   c0-0.39-0.235-0.742-0.595-0.891c-0.36-0.15-0.775-0.067-1.051,0.209L18.655,74.059C18.379,74.334,18.296,74.749,18.446,75.11z    M87.176,8.293v65.483h-1.929v-1.608c0-0.533-0.432-0.965-0.965-0.965h-0.643c-0.533,0-0.965,0.432-0.965,0.965v1.608h-2.573   v-2.894c0-0.533-0.432-0.965-0.965-0.965h-0.643c-0.533,0-0.965,0.432-0.965,0.965v2.894h-3.216v-1.608   c0-0.533-0.432-0.965-0.965-0.965h-0.643c-0.533,0-0.965,0.432-0.965,0.965v1.608h-2.573v-2.894c0-0.533-0.432-0.965-0.965-0.965   H67.56c-0.533,0-0.965,0.432-0.965,0.965v2.894h-3.216v-1.608c0-0.533-0.432-0.965-0.965-0.965h-0.643   c-0.533,0-0.965,0.432-0.965,0.965v1.608h-2.573v-2.894c0-0.533-0.432-0.965-0.965-0.965h-0.643c-0.533,0-0.965,0.432-0.965,0.965   v2.894h-3.216v-1.608c0-0.533-0.432-0.965-0.965-0.965h-0.643c-0.533,0-0.965,0.432-0.965,0.965v1.608H47.3v-2.894   c0-0.533-0.432-0.965-0.965-0.965h-0.643c-0.533,0-0.965,0.432-0.965,0.965v2.894h-1.929v-1.608c0-0.533-0.432-0.965-0.965-0.965   H41.19c-0.533,0-0.965,0.432-0.965,0.965v1.608h-1.929v-2.894c0-0.533-0.432-0.965-0.965-0.965h-0.643   c-0.533,0-0.965,0.432-0.965,0.965v2.894h-2.573v-1.608c0-0.533-0.432-0.965-0.965-0.965h-0.643c-0.533,0-0.965,0.432-0.965,0.965   v1.608h-1.929v-2.894c0-0.533-0.432-0.965-0.965-0.965h-0.643c-0.533,0-0.965,0.432-0.965,0.965v2.894h-4.409L87.176,8.293z"/>
</g>
</svg>